<svg id="svg" version="1.1" xmlns="http://www.w3.org/2000/svg" xmlns:xlink="http://www.w3.org/1999/xlink" width="400" height="400" viewBox="0, 0, 400,400"><g id="svgg"><path id="path0" d="M128.685 100.818 C 114.531 102.454,104.888 113.928,104.917 129.102 C 104.942 142.117,105.838 143.410,133.189 169.922 C 136.842 173.464,169.367 205.331,173.455 209.375 C 176.469 212.356,200.115 235.528,211.772 246.924 C 214.272 249.368,223.588 258.502,232.475 267.222 C 254.221 288.561,254.170 288.513,256.423 290.001 C 267.830 297.534,283.924 295.676,292.949 285.784 C 301.507 276.403,302.370 262.829,295.057 252.606 C 293.781 250.822,201.957 158.201,158.216 114.578 C 145.694 102.089,140.127 99.495,128.685 100.818 " stroke="none" fill="#4c2cf2" fill-rule="evenodd"></path><path id="path1" d="M0.000 200.000 L 0.000 400.000 200.000 400.000 L 400.000 400.000 400.000 200.000 L 400.000 0.000 200.000 0.000 L 0.000 0.000 0.000 200.000 M185.817 103.563 C 189.858 105.522,195.977 108.488,199.414 110.155 C 202.852 111.821,209.355 114.983,213.867 117.181 C 218.379 119.379,225.322 122.759,229.297 124.692 C 233.271 126.625,240.820 130.303,246.070 132.865 C 259.164 139.253,258.836 139.214,259.929 134.484 C 263.947 117.094,285.134 110.041,298.759 121.557 L 300.000 122.606 300.000 171.922 L 300.000 221.239 299.151 222.143 C 298.538 222.795,297.858 223.050,296.709 223.058 L 295.117 223.070 235.458 163.195 C 173.044 100.556,174.846 102.463,176.428 100.714 C 177.436 99.600,177.999 99.771,185.817 103.563 M137.500 100.805 C 142.999 101.691,147.725 104.025,151.892 107.916 C 152.941 108.895,290.612 247.102,293.191 249.764 C 309.410 266.510,296.239 294.762,272.266 294.650 C 260.740 294.597,258.625 293.323,240.820 275.716 C 234.375 269.341,228.574 263.647,227.930 263.060 C 227.285 262.474,218.584 253.957,208.594 244.133 C 198.604 234.309,189.814 225.700,189.063 225.002 C 188.311 224.305,179.170 215.363,168.750 205.132 C 158.330 194.900,145.498 182.301,140.234 177.133 C 103.693 141.255,105.248 143.286,104.795 130.859 C 104.068 110.920,118.418 97.733,137.500 100.805 M104.559 175.416 C 105.161 175.645,105.936 176.128,106.282 176.490 C 106.628 176.852,113.555 183.652,121.675 191.602 C 129.795 199.551,138.224 207.813,140.407 209.961 C 149.715 219.124,178.604 247.450,181.608 250.359 C 183.408 252.102,192.546 261.070,201.913 270.287 C 211.281 279.504,219.956 288.023,221.191 289.217 C 223.661 291.605,223.943 292.575,222.588 294.018 C 221.357 295.329,221.539 295.391,210.001 289.696 C 193.643 281.623,176.115 273.006,166.016 268.073 C 160.967 265.607,153.313 261.850,149.007 259.724 C 139.949 255.253,140.625 255.445,140.625 257.340 C 140.625 275.513,115.789 285.620,101.245 273.365 L 100.000 272.316 100.000 224.669 L 100.000 177.023 101.202 176.011 C 102.538 174.887,102.968 174.811,104.559 175.416 " stroke="none" fill="#fbfbfb" fill-rule="evenodd"></path><path id="path2" d="M102.045 176.048 C 101.381 176.370,100.731 176.912,100.599 177.254 C 99.918 179.029,100.379 271.975,101.072 272.525 C 110.672 280.142,121.845 280.547,131.086 273.614 C 135.723 270.135,139.837 263.465,139.846 259.412 C 139.849 257.910,140.603 255.469,141.063 255.469 C 141.554 255.469,146.211 257.710,165.820 267.382 C 174.199 271.515,185.625 277.125,191.211 279.849 C 196.797 282.573,201.705 284.989,202.118 285.219 C 202.531 285.449,205.344 286.858,208.368 288.349 C 211.393 289.841,215.243 291.754,216.925 292.601 C 220.588 294.445,222.115 294.587,222.667 293.135 C 223.174 291.801,223.559 292.248,212.928 281.820 C 207.900 276.887,198.533 267.666,192.113 261.328 C 185.693 254.990,177.547 246.992,174.012 243.555 C 170.476 240.117,162.198 232.031,155.617 225.586 C 149.035 219.141,141.849 212.109,139.648 209.961 C 137.447 207.813,128.920 199.463,120.699 191.406 C 102.981 174.041,104.169 175.019,102.045 176.048 " stroke="none" fill="#e97433" fill-rule="evenodd"></path><path id="path3" d="M176.428 100.714 C 174.846 102.463,173.044 100.556,235.458 163.195 L 295.117 223.070 296.709 223.058 C 297.858 223.050,298.538 222.795,299.151 222.143 L 300.000 221.239 300.000 171.922 L 300.000 122.606 298.759 121.557 C 285.134 110.041,263.947 117.094,259.929 134.484 C 258.836 139.214,259.164 139.253,246.070 132.865 C 240.820 130.303,233.271 126.625,229.297 124.692 C 225.322 122.759,218.379 119.379,213.867 117.181 C 209.355 114.983,202.852 111.821,199.414 110.155 C 195.977 108.488,189.858 105.522,185.817 103.563 C 177.999 99.771,177.436 99.600,176.428 100.714 M129.204 100.667 C 129.690 100.760,130.393 100.757,130.766 100.659 C 131.140 100.561,130.742 100.485,129.883 100.489 C 129.023 100.493,128.718 100.573,129.204 100.667 M133.891 100.667 C 134.377 100.760,135.080 100.757,135.454 100.659 C 135.827 100.561,135.430 100.485,134.570 100.489 C 133.711 100.493,133.405 100.573,133.891 100.667 M151.257 107.622 C 152.055 108.457,152.772 109.062,152.849 108.965 C 152.926 108.868,152.273 108.185,151.397 107.446 L 149.805 106.104 151.257 107.622 M112.471 108.496 C 110.705 110.361,108.681 112.812,109.811 111.719 C 111.093 110.477,114.558 106.641,114.397 106.641 C 114.304 106.641,113.438 107.476,112.471 108.496 M153.516 109.888 C 153.516 109.955,154.087 110.526,154.785 111.157 L 156.055 112.305 154.907 111.035 C 153.838 109.852,153.516 109.586,153.516 109.888 M156.641 113.013 C 156.641 113.080,157.212 113.651,157.910 114.282 L 159.180 115.430 158.032 114.160 C 156.963 112.977,156.641 112.711,156.641 113.013 M159.766 116.138 C 159.766 116.205,160.337 116.776,161.035 117.407 L 162.305 118.555 161.157 117.285 C 160.088 116.102,159.766 115.836,159.766 116.138 M162.891 119.263 C 162.891 119.330,163.462 119.901,164.160 120.532 L 165.430 121.680 164.282 120.410 C 163.213 119.227,162.891 118.961,162.891 119.263 M190.431 146.875 C 203.966 160.518,215.120 171.629,215.218 171.566 C 215.316 171.503,204.243 160.341,190.610 146.761 L 165.823 122.070 190.431 146.875 M106.668 141.211 C 106.668 141.426,106.920 142.041,107.227 142.578 C 107.534 143.115,107.785 143.379,107.785 143.164 C 107.785 142.949,107.534 142.334,107.227 141.797 C 106.920 141.260,106.668 140.996,106.668 141.211 M117.188 154.492 C 117.916 155.244,118.601 155.859,118.708 155.859 C 118.815 155.859,118.307 155.244,117.578 154.492 C 116.849 153.740,116.165 153.125,116.058 153.125 C 115.950 153.125,116.459 153.740,117.188 154.492 M119.141 156.357 C 119.141 156.417,120.503 157.779,122.168 159.385 L 125.195 162.305 122.275 159.277 C 119.563 156.466,119.141 156.072,119.141 156.357 M125.391 162.622 C 125.391 162.689,125.962 163.261,126.660 163.892 L 127.930 165.039 126.782 163.770 C 125.713 162.586,125.391 162.320,125.391 162.622 M141.406 178.320 C 144.731 181.650,147.539 184.375,147.647 184.375 C 147.754 184.375,145.122 181.650,141.797 178.320 C 138.472 174.990,135.664 172.266,135.556 172.266 C 135.449 172.266,138.081 174.990,141.406 178.320 M216.928 173.542 C 217.608 174.244,218.239 174.770,218.331 174.710 C 218.554 174.565,216.339 172.266,215.976 172.266 C 215.820 172.266,216.248 172.840,216.928 173.542 M220.144 176.758 C 220.918 177.510,221.659 178.125,221.790 178.125 C 221.921 178.125,221.432 177.510,220.703 176.758 C 219.974 176.006,219.233 175.391,219.057 175.391 C 218.880 175.391,219.369 176.006,220.144 176.758 M223.178 179.792 C 223.858 180.494,224.489 181.020,224.581 180.960 C 224.804 180.815,222.589 178.516,222.226 178.516 C 222.070 178.516,222.498 179.090,223.178 179.792 M162.695 199.219 C 165.697 202.227,168.241 204.688,168.349 204.688 C 168.456 204.688,166.088 202.227,163.086 199.219 C 160.084 196.211,157.540 193.750,157.432 193.750 C 157.325 193.750,159.693 196.211,162.695 199.219 M251.172 208.008 C 251.901 208.760,252.585 209.375,252.692 209.375 C 252.800 209.375,252.291 208.760,251.563 208.008 C 250.834 207.256,250.149 206.641,250.042 206.641 C 249.935 206.641,250.443 207.256,251.172 208.008 M254.297 211.133 C 255.026 211.885,255.710 212.500,255.817 212.500 C 255.925 212.500,255.416 211.885,254.688 211.133 C 253.959 210.381,253.274 209.766,253.167 209.766 C 253.060 209.766,253.568 210.381,254.297 211.133 M182.227 218.359 C 185.444 221.582,188.164 224.219,188.271 224.219 C 188.379 224.219,185.834 221.582,182.617 218.359 C 179.400 215.137,176.680 212.500,176.572 212.500 C 176.465 212.500,179.009 215.137,182.227 218.359 M257.422 214.258 C 258.151 215.010,258.835 215.625,258.942 215.625 C 259.050 215.625,258.541 215.010,257.813 214.258 C 257.084 213.506,256.399 212.891,256.292 212.891 C 256.185 212.891,256.693 213.506,257.422 214.258 M260.547 217.383 C 261.276 218.135,261.960 218.750,262.067 218.750 C 262.175 218.750,261.666 218.135,260.938 217.383 C 260.209 216.631,259.524 216.016,259.417 216.016 C 259.310 216.016,259.818 216.631,260.547 217.383 M263.672 220.508 C 264.401 221.260,265.085 221.875,265.192 221.875 C 265.300 221.875,264.791 221.260,264.063 220.508 C 263.334 219.756,262.649 219.141,262.542 219.141 C 262.435 219.141,262.943 219.756,263.672 220.508 M266.797 223.633 C 267.526 224.385,268.210 225.000,268.317 225.000 C 268.425 225.000,267.916 224.385,267.188 223.633 C 266.459 222.881,265.774 222.266,265.667 222.266 C 265.560 222.266,266.068 222.881,266.797 223.633 M269.922 226.758 C 270.651 227.510,271.335 228.125,271.442 228.125 C 271.550 228.125,271.041 227.510,270.313 226.758 C 269.584 226.006,268.899 225.391,268.792 225.391 C 268.685 225.391,269.193 226.006,269.922 226.758 M271.875 228.616 C 271.875 228.671,276.665 233.461,282.520 239.261 L 293.164 249.805 282.620 239.160 C 272.821 229.268,271.875 228.340,271.875 228.616 M201.367 237.109 C 203.723 239.473,205.739 241.406,205.846 241.406 C 205.953 241.406,204.114 239.473,201.758 237.109 C 199.402 234.746,197.386 232.813,197.279 232.813 C 197.172 232.813,199.011 234.746,201.367 237.109 M295.125 252.694 C 295.913 253.790,296.638 254.688,296.735 254.688 C 297.004 254.688,294.582 251.250,294.107 250.956 C 293.879 250.815,294.337 251.597,295.125 252.694 M221.484 256.836 C 224.594 259.951,227.226 262.500,227.334 262.500 C 227.441 262.500,224.985 259.951,221.875 256.836 C 218.765 253.721,216.133 251.172,216.026 251.172 C 215.918 251.172,218.375 253.721,221.484 256.836 M298.112 258.223 C 298.341 258.879,298.600 259.342,298.689 259.254 C 298.882 259.060,298.145 257.031,297.882 257.031 C 297.780 257.031,297.884 257.568,298.112 258.223 M238.086 273.047 C 239.144 274.121,240.098 275.000,240.205 275.000 C 240.312 275.000,239.535 274.121,238.477 273.047 C 237.418 271.973,236.465 271.094,236.357 271.094 C 236.250 271.094,237.028 271.973,238.086 273.047 M241.797 276.758 C 242.526 277.510,243.210 278.125,243.317 278.125 C 243.425 278.125,242.916 277.510,242.188 276.758 C 241.459 276.006,240.774 275.391,240.667 275.391 C 240.560 275.391,241.068 276.006,241.797 276.758 M297.720 278.337 C 297.065 279.773,297.190 280.080,297.898 278.774 C 298.228 278.164,298.426 277.592,298.336 277.503 C 298.247 277.414,297.969 277.789,297.720 278.337 M244.922 279.883 C 245.651 280.635,246.335 281.250,246.442 281.250 C 246.550 281.250,246.041 280.635,245.313 279.883 C 244.584 279.131,243.899 278.516,243.792 278.516 C 243.685 278.516,244.193 279.131,244.922 279.883 M295.647 282.324 C 295.152 283.130,294.127 284.509,293.369 285.388 C 292.304 286.625,292.390 286.572,293.750 285.154 C 295.361 283.474,297.177 280.859,296.734 280.859 C 296.632 280.859,296.143 281.519,295.647 282.324 M251.258 286.076 C 251.963 286.797,252.614 287.323,252.706 287.244 C 252.932 287.051,250.720 284.766,250.306 284.766 C 250.126 284.766,250.554 285.355,251.258 286.076 M270.987 294.813 C 271.681 294.899,272.911 294.901,273.722 294.816 C 274.532 294.732,273.965 294.661,272.461 294.659 C 270.957 294.658,270.294 294.727,270.987 294.813 " stroke="none" fill="#5bb4f9" fill-rule="evenodd"></path><path id="path4" d="M101.202 176.011 C 100.299 176.771,100.010 177.330,100.040 178.257 L 100.080 179.492 100.386 178.201 C 100.905 176.006,102.787 175.083,104.638 176.115 C 105.273 176.469,112.509 183.350,120.719 191.406 C 128.929 199.463,137.447 207.813,139.648 209.961 C 141.849 212.109,149.035 219.141,155.617 225.586 C 173.206 242.811,180.625 250.000,180.813 250.000 C 181.010 250.000,179.724 248.429,179.028 247.819 C 178.601 247.446,150.981 220.371,140.407 209.961 C 138.224 207.813,129.795 199.551,121.675 191.602 C 113.555 183.652,106.628 176.852,106.282 176.490 C 104.713 174.849,102.798 174.668,101.202 176.011 M100.189 225.781 C 100.189 250.166,100.236 260.142,100.293 247.949 C 100.350 235.757,100.350 215.806,100.293 203.613 C 100.236 191.421,100.189 201.396,100.189 225.781 M195.092 264.265 C 202.813 271.880,209.224 278.015,209.339 277.900 C 209.454 277.785,207.180 275.402,204.286 272.603 C 201.392 269.805,195.142 263.662,190.397 258.953 C 185.653 254.244,181.610 250.398,181.413 250.406 C 181.216 250.414,187.372 256.651,195.092 264.265 M148.633 259.535 C 153.145 261.763,160.967 265.605,166.016 268.072 C 171.064 270.538,180.619 275.226,187.248 278.489 C 193.878 281.753,199.387 284.337,199.492 284.232 C 199.597 284.127,195.755 282.115,190.954 279.760 C 186.154 277.406,175.107 271.966,166.406 267.673 C 145.354 257.286,141.559 255.468,140.947 255.475 C 140.662 255.479,144.121 257.306,148.633 259.535 M140.110 258.008 C 137.556 275.288,117.928 284.340,104.024 274.648 C 100.975 272.523,100.555 272.168,100.290 271.484 C 100.112 271.027,100.055 271.054,100.031 271.607 C 99.915 274.269,108.908 278.521,115.279 278.818 C 128.462 279.432,141.713 268.152,140.536 257.318 C 140.416 256.214,140.363 256.301,140.110 258.008 M209.766 278.366 C 209.766 278.871,212.038 281.061,212.295 280.804 C 212.401 280.698,211.876 280.017,211.127 279.291 C 210.378 278.566,209.766 278.149,209.766 278.366 M217.188 285.997 C 223.320 292.054,223.158 291.845,222.674 293.117 C 222.046 294.768,220.634 294.419,213.310 290.801 C 209.592 288.964,206.463 287.547,206.358 287.652 C 206.116 287.894,220.456 294.922,221.192 294.922 C 222.010 294.922,223.438 293.233,223.438 292.266 C 223.438 291.452,213.878 281.637,212.765 281.309 C 212.512 281.235,214.502 283.344,217.188 285.997 M200.000 284.539 C 200.000 284.855,205.516 287.583,205.727 287.372 C 205.825 287.274,204.906 286.652,203.684 285.990 C 201.309 284.704,200.000 284.188,200.000 284.539 " stroke="none" fill="#dc9b6e" fill-rule="evenodd"></path></g></svg>